<svg xmlns="http://www.w3.org/2000/svg" version="1.1" xmlns:xlink="http://www.w3.org/1999/xlink" xmlns:svgjs="http://svgjs.dev/svgjs" width="1500" height="1247" viewBox="0 0 1500 1247"><g transform="matrix(1,0,0,1,0.7598194382793508,0.504858299595071)"><svg viewBox="0 0 297 247" data-background-color="#ffffff" preserveAspectRatio="xMidYMid meet" height="1247" width="1500" xmlns="http://www.w3.org/2000/svg" xmlns:xlink="http://www.w3.org/1999/xlink"><g id="tight-bounds" transform="matrix(1,0,0,1,-0.1504442487793085,-0.09999999999999432)"><svg viewBox="0 0 297.3008884975586 247.2" height="247.2" width="297.3008884975586"><g><svg viewBox="0 0 297.3008884975586 247.2" height="247.2" width="297.3008884975586"><g><svg viewBox="0 0 297.3008884975586 247.2" height="247.2" width="297.3008884975586"><g id="textblocktransform"><svg viewBox="0 0 297.3008884975586 247.2" height="247.2" width="297.3008884975586" id="textblock"><g><svg viewBox="0 0 297.3008884975586 247.2" height="247.2" width="297.3008884975586"><g transform="matrix(1,0,0,1,0,0)"><svg width="297.3008884975586" viewBox="2.3200000000000047 -35.11 293.46 240.2" height="247.2" data-palette-color="#919591"><svg></svg><svg></svg><svg></svg><svg></svg><svg></svg><g class="wordmark-text-0" data-fill-palette-color="primary" id="text-0"><path d="M4.98 0v-35.11h4.59v35.11zM18.99 0v-35.11h19.49v3.76h-14.9v9.69h10.55v3.76h-10.55v14.14h15.46v3.76zM44.12-31.35v-3.76h26.29v3.76h-10.79v31.35h-4.59v-31.35z" fill="#919591" fill-rule="nonzero" stroke="none" stroke-width="1" stroke-linecap="butt" stroke-linejoin="miter" stroke-miterlimit="10" stroke-dasharray="" stroke-dashoffset="0" font-family="none" font-weight="none" font-size="none" text-anchor="none" style="mix-blend-mode: normal" data-fill-palette-color="primary" opacity="1"></path><path d="M4.76 48.8v-35.11h4.59v31.35h14.38v3.76zM50.54 48.36v0l-4.06 0.9c-0.307-0.973-0.523-1.917-0.65-2.83v0c-0.067-0.42-0.15-1.283-0.25-2.59v0h-0.51c-0.893 1.647-2 2.957-3.32 3.93v0c-1.447 1.08-2.977 1.62-4.59 1.62v0c-2.427 0-4.273-0.587-5.54-1.76v0c-1.093-0.993-1.85-2.517-2.27-4.57v0c-0.28-1.4-0.42-3.483-0.42-6.25v0-13.4h4.2v14.57c0 2.427 0.237 4.16 0.71 5.2v0c0.7 1.547 2.107 2.32 4.22 2.32v0c1.5 0 2.967-0.713 4.4-2.14v0c0.96-0.96 1.983-2.37 3.07-4.23v0-15.72h4.2v15.67c0 2.167 0.057 4.047 0.17 5.64v0c0.067 0.993 0.28 2.207 0.64 3.64zM74.51 44.48l1.05 3.42c-1.267 0.44-2.62 0.797-4.06 1.07-1.44 0.28-2.803 0.42-4.09 0.42v0c-1.953 0-3.647-0.287-5.08-0.86-1.433-0.567-2.617-1.397-3.55-2.49-0.94-1.087-1.637-2.423-2.09-4.01-0.453-1.593-0.68-3.407-0.68-5.44v0c0-2.213 0.28-4.173 0.84-5.88 0.56-1.707 1.373-3.143 2.44-4.31 1.067-1.167 2.37-2.05 3.91-2.65 1.533-0.6 3.277-0.9 5.23-0.9v0c0.993 0 2.003 0.1 3.03 0.3 1.027 0.207 2.067 0.463 3.12 0.77v0l-1.04 3.42c-0.847-0.28-1.633-0.5-2.36-0.66-0.727-0.16-1.487-0.24-2.28-0.24v0c-2.767 0-4.9 0.8-6.4 2.4-1.5 1.607-2.25 4.027-2.25 7.26v0c0 1.52 0.11 2.877 0.33 4.07 0.22 1.193 0.613 2.21 1.18 3.05 0.56 0.84 1.323 1.48 2.29 1.92 0.967 0.44 2.2 0.66 3.7 0.66v0c0.973 0 2.027-0.127 3.16-0.38 1.133-0.253 2.333-0.567 3.6-0.94zM81.59 48.8v-35.16h4.2v21.15l11.43-11.94 2.76 2.68-9.89 10.18 12.47 13.09h-5.22l-11.55-12.21v12.21zM106.1 23.85v0l4.06-0.9c0.307 0.973 0.527 1.917 0.66 2.83v0c0.06 0.44 0.14 1.31 0.24 2.61v0h0.51c0.9-1.647 2.007-2.957 3.32-3.93v0c1.453-1.073 2.983-1.61 4.59-1.61v0c2.427 0 4.273 0.587 5.54 1.76v0c1.093 0.987 1.85 2.507 2.27 4.56v0c0.28 1.4 0.42 3.483 0.42 6.25v0 13.38h-4.2v-14.55c0-2.427-0.237-4.16-0.71-5.2v0c-0.7-1.547-2.107-2.32-4.22-2.32v0c-1.5 0-2.967 0.717-4.4 2.15v0c-0.96 0.96-1.983 2.367-3.07 4.22v0 15.7h-4.2v-15.63c0-2.193-0.057-4.087-0.17-5.68v0c-0.067-0.993-0.28-2.207-0.64-3.64zM144.36 22.85v0c0.8 0 1.63 0.06 2.49 0.18 0.86 0.12 1.707 0.353 2.54 0.7v0c0.827 0.353 1.613 0.837 2.36 1.45 0.74 0.607 1.393 1.4 1.96 2.38v0c0.573 0.993 1.02 2.187 1.34 3.58 0.327 1.387 0.49 3.04 0.49 4.96v0c0 1.927-0.163 3.583-0.49 4.97-0.32 1.393-0.767 2.58-1.34 3.56v0c-0.567 0.987-1.22 1.79-1.96 2.41-0.747 0.62-1.533 1.1-2.36 1.44v0c-0.833 0.36-1.68 0.6-2.54 0.72-0.86 0.127-1.69 0.19-2.49 0.19v0c-0.78 0-1.597-0.063-2.45-0.19-0.853-0.12-1.697-0.36-2.53-0.72v0c-0.833-0.34-1.613-0.82-2.34-1.44-0.733-0.62-1.387-1.423-1.96-2.41v0c-0.567-0.98-1.013-2.167-1.34-3.56-0.327-1.387-0.49-3.043-0.49-4.97v0c0-1.92 0.163-3.573 0.49-4.96 0.327-1.393 0.773-2.587 1.34-3.58v0c0.573-0.98 1.227-1.773 1.96-2.38 0.727-0.613 1.507-1.097 2.34-1.45v0c0.833-0.347 1.67-0.58 2.51-0.7 0.847-0.12 1.67-0.18 2.47-0.18zM144.36 26.29v0c-0.927 0-1.8 0.147-2.62 0.44-0.827 0.293-1.547 0.807-2.16 1.54v0c-0.64 0.747-1.147 1.747-1.52 3-0.373 1.253-0.56 2.863-0.56 4.83v0c0 1.953 0.187 3.563 0.56 4.83 0.373 1.26 0.88 2.257 1.52 2.99v0c0.613 0.747 1.333 1.263 2.16 1.55 0.82 0.28 1.693 0.42 2.62 0.42v0c0.947 0 1.837-0.14 2.67-0.42 0.84-0.287 1.577-0.803 2.21-1.55v0c0.64-0.733 1.14-1.73 1.5-2.99 0.367-1.267 0.55-2.877 0.55-4.83v0c0-1.967-0.183-3.577-0.55-4.83-0.36-1.253-0.86-2.253-1.5-3v0c-0.633-0.733-1.37-1.247-2.21-1.54-0.833-0.293-1.723-0.44-2.67-0.44zM185.13 48.8v0h-5.59l-3.05-11.79-4.91 11.79h-5.52l-6.49-25.42h4.2l5.35 22.37 5.9-14.65-1.97-7.72h4.2l5.49 22.37c1.76-4.073 2.99-7.133 3.69-9.18v0c0.847-2.493 1.27-4.633 1.27-6.42v0c0-1.567-0.383-3.677-1.15-6.33v0c1.48-0.373 2.823-0.673 4.03-0.9v0c0.68 1.68 1.11 3.487 1.29 5.42v0c0.047 0.487 0.07 0.983 0.07 1.49v0c0 2.667-0.747 5.777-2.24 9.33v0c-0.407 0.94-0.867 1.953-1.38 3.04-0.513 1.08-1.117 2.333-1.81 3.76-0.693 1.42-1.153 2.367-1.38 2.84z" fill="#636365" fill-rule="nonzero" stroke="none" stroke-width="1" stroke-linecap="butt" stroke-linejoin="miter" stroke-miterlimit="10" stroke-dasharray="" stroke-dashoffset="0" font-family="none" font-weight="none" font-size="none" text-anchor="none" style="mix-blend-mode: normal" data-fill-palette-color="secondary" opacity="1"></path><path d="M23.12 92.91l9.77-30.39h6.81l4.22 35.08h-4.47l-3.66-29.54h-0.24l-9.7 29.54h-5.46l-9.7-29.54h-0.24l-3.66 29.54h-4.47l4.22-35.08h6.81zM68.12 92.89l1.22 3.29c-1.807 0.72-3.503 1.233-5.09 1.54-1.587 0.313-3.007 0.47-4.26 0.47v0c-1.927 0-3.603-0.307-5.03-0.92-1.433-0.613-2.627-1.473-3.58-2.58-0.953-1.107-1.67-2.427-2.15-3.96-0.48-1.54-0.72-3.237-0.72-5.09v0c0-1.14 0.08-2.28 0.24-3.42 0.167-1.14 0.43-2.227 0.79-3.26 0.353-1.033 0.82-1.997 1.4-2.89 0.58-0.9 1.283-1.673 2.11-2.32 0.833-0.653 1.803-1.167 2.91-1.54 1.107-0.373 2.367-0.56 3.78-0.56v0c3.633 0 6.367 1.133 8.2 3.4 1.84 2.273 2.76 5.527 2.76 9.76v0 1.34h-17.87c0 1.367 0.147 2.577 0.44 3.63 0.293 1.047 0.747 1.933 1.36 2.66 0.607 0.72 1.38 1.267 2.32 1.64 0.933 0.38 2.043 0.57 3.33 0.57v0c0.713 0 1.423-0.053 2.13-0.16 0.713-0.107 1.403-0.247 2.07-0.42 0.667-0.167 1.303-0.357 1.91-0.57 0.613-0.213 1.19-0.417 1.73-0.61zM52.95 82.78h13.53c-0.133-2.633-0.763-4.557-1.89-5.77-1.133-1.213-2.75-1.82-4.85-1.82v0c-2.1 0-3.7 0.607-4.8 1.82-1.093 1.213-1.757 3.137-1.99 5.77zM84.79 71.65v0c1.333 0 2.673 0.137 4.02 0.41 1.34 0.28 2.587 0.663 3.74 1.15v0c-0.227 0.52-0.46 1.033-0.7 1.54-0.247 0.507-0.517 1.003-0.81 1.49v0c-0.407-0.167-0.857-0.33-1.35-0.49-0.5-0.16-1.023-0.3-1.57-0.42-0.547-0.113-1.107-0.207-1.68-0.28-0.58-0.073-1.147-0.11-1.7-0.11v0c-0.6 0-1.18 0.063-1.74 0.19-0.567 0.12-1.063 0.317-1.49 0.59-0.433 0.28-0.78 0.643-1.04 1.09-0.26 0.447-0.39 1.003-0.39 1.67v0c0 0.687 0.147 1.26 0.44 1.72 0.293 0.467 0.69 0.853 1.19 1.16 0.507 0.313 1.097 0.577 1.77 0.79 0.68 0.207 1.4 0.4 2.16 0.58v0c1.193 0.293 2.3 0.623 3.32 0.99 1.027 0.367 1.917 0.843 2.67 1.43 0.747 0.587 1.33 1.31 1.75 2.17 0.427 0.867 0.64 1.933 0.64 3.2v0c0 1.333-0.263 2.48-0.79 3.44-0.533 0.96-1.25 1.753-2.15 2.38-0.907 0.627-1.96 1.09-3.16 1.39-1.207 0.307-2.493 0.46-3.86 0.46v0c-0.72 0-1.457-0.047-2.21-0.14-0.76-0.087-1.51-0.217-2.25-0.39-0.74-0.173-1.467-0.38-2.18-0.62-0.72-0.247-1.397-0.517-2.03-0.81v0c0.227-0.52 0.467-1.027 0.72-1.52 0.253-0.5 0.517-0.993 0.79-1.48v0c0.54 0.227 1.11 0.443 1.71 0.65 0.607 0.2 1.227 0.373 1.86 0.52 0.633 0.147 1.26 0.267 1.88 0.36 0.62 0.087 1.213 0.13 1.78 0.13v0c0.72 0 1.417-0.08 2.09-0.24 0.673-0.167 1.273-0.423 1.8-0.77 0.533-0.353 0.957-0.807 1.27-1.36 0.32-0.553 0.48-1.22 0.48-2v0c0-0.733-0.15-1.337-0.45-1.81-0.3-0.467-0.703-0.86-1.21-1.18-0.507-0.32-1.097-0.58-1.77-0.78-0.673-0.207-1.387-0.4-2.14-0.58v0c-1.133-0.273-2.21-0.59-3.23-0.95-1.02-0.36-1.907-0.827-2.66-1.4-0.76-0.58-1.363-1.297-1.81-2.15-0.447-0.853-0.67-1.917-0.67-3.19v0c0-1.187 0.243-2.21 0.73-3.07 0.487-0.867 1.143-1.577 1.97-2.13 0.82-0.553 1.77-0.963 2.85-1.23 1.087-0.267 2.223-0.4 3.41-0.4zM108.11 71.65v0c1.333 0 2.67 0.137 4.01 0.41 1.347 0.28 2.597 0.663 3.75 1.15v0c-0.227 0.52-0.463 1.033-0.71 1.54-0.247 0.507-0.513 1.003-0.8 1.49v0c-0.407-0.167-0.86-0.33-1.36-0.49-0.493-0.16-1.013-0.3-1.56-0.42-0.547-0.113-1.11-0.207-1.69-0.28-0.573-0.073-1.137-0.11-1.69-0.11v0c-0.607 0-1.19 0.063-1.75 0.19-0.56 0.12-1.057 0.317-1.49 0.59-0.433 0.28-0.78 0.643-1.04 1.09-0.26 0.447-0.39 1.003-0.39 1.67v0c0 0.687 0.147 1.26 0.44 1.72 0.293 0.467 0.693 0.853 1.2 1.16 0.507 0.313 1.097 0.577 1.77 0.79 0.673 0.207 1.393 0.4 2.16 0.58v0c1.187 0.293 2.293 0.623 3.32 0.99 1.027 0.367 1.913 0.843 2.66 1.43 0.747 0.587 1.333 1.31 1.76 2.17 0.42 0.867 0.63 1.933 0.63 3.2v0c0 1.333-0.263 2.48-0.79 3.44-0.527 0.96-1.243 1.753-2.15 2.38-0.9 0.627-1.953 1.09-3.16 1.39-1.207 0.307-2.493 0.46-3.86 0.46v0c-0.713 0-1.45-0.047-2.21-0.14-0.753-0.087-1.5-0.217-2.24-0.39-0.74-0.173-1.47-0.38-2.19-0.62-0.713-0.247-1.387-0.517-2.02-0.81v0c0.227-0.52 0.467-1.027 0.72-1.52 0.247-0.5 0.51-0.993 0.79-1.48v0c0.54 0.227 1.11 0.443 1.71 0.65 0.6 0.2 1.217 0.373 1.85 0.52 0.64 0.147 1.267 0.267 1.88 0.36 0.62 0.087 1.217 0.13 1.79 0.13v0c0.713 0 1.407-0.08 2.08-0.24 0.68-0.167 1.283-0.423 1.81-0.77 0.527-0.353 0.95-0.807 1.27-1.36 0.32-0.553 0.48-1.22 0.48-2v0c0-0.733-0.153-1.337-0.46-1.81-0.3-0.467-0.7-0.86-1.2-1.18-0.507-0.32-1.097-0.58-1.77-0.78-0.68-0.207-1.393-0.4-2.14-0.58v0c-1.14-0.273-2.22-0.59-3.24-0.95-1.013-0.36-1.9-0.827-2.66-1.4-0.753-0.58-1.353-1.297-1.8-2.15-0.447-0.853-0.67-1.917-0.67-3.19v0c0-1.187 0.243-2.21 0.73-3.07 0.487-0.867 1.14-1.577 1.96-2.13 0.827-0.553 1.78-0.963 2.86-1.23 1.08-0.267 2.217-0.4 3.41-0.4z" fill="#919591" fill-rule="nonzero" stroke="none" stroke-width="1" stroke-linecap="butt" stroke-linejoin="miter" stroke-miterlimit="10" stroke-dasharray="" stroke-dashoffset="0" font-family="none" font-weight="none" font-size="none" text-anchor="none" style="mix-blend-mode: normal" data-fill-palette-color="primary" opacity="1"></path><path d="M23.12 141.71l9.77-30.39h6.81l4.22 35.08h-4.47l-3.66-29.54h-0.24l-9.7 29.54h-5.46l-9.7-29.54h-0.24l-3.66 29.54h-4.47l4.22-35.08h6.81zM51.83 125.5v0l-1.07-3.42c2.733-1.087 5.597-1.63 8.59-1.63v0c2.62 0 4.623 0.44 6.01 1.32v0c1.573 1.007 2.36 2.723 2.36 5.15v0 9.98c0 1.333 0.017 2.7 0.05 4.1v0c0.02 0.833 0.103 1.697 0.25 2.59v0c0.127 0.847 0.297 1.653 0.51 2.42v0l-4 0.88c-0.38-1.093-0.617-2.313-0.71-3.66v0l-0.49-0.05c-2.02 2.54-4.59 3.81-7.71 3.81v0c-2.28 0-4.113-0.633-5.5-1.9-1.38-1.26-2.07-3.037-2.07-5.33v0c0-1.707 0.377-3.107 1.13-4.2 0.76-1.093 1.83-2.013 3.21-2.76v0c2.18-1.187 5.233-1.78 9.16-1.78v0c0.52 0 1.22 0.017 2.1 0.05v0-3.71c0-1.173-0.36-2.02-1.08-2.54-0.713-0.52-1.837-0.78-3.37-0.78v0c-2.227 0-4.683 0.487-7.37 1.46zM63.65 139.27v0-5.13c-0.44-0.027-1.083-0.04-1.93-0.04v0c-1.433 0-2.753 0.12-3.96 0.36v0c-1.787 0.36-3.173 0.927-4.16 1.7-0.987 0.773-1.48 1.883-1.48 3.33v0c0 2.607 1.417 3.91 4.25 3.91v0c1.467 0 2.833-0.39 4.1-1.17v0c1.047-0.653 2.107-1.64 3.18-2.96zM74.95 121.45v0l4.05-0.9c0.313 0.973 0.533 1.917 0.66 2.83v0c0.067 0.44 0.15 1.31 0.25 2.61v0h0.51c0.893-1.647 2-2.957 3.32-3.93v0c1.447-1.073 2.977-1.61 4.59-1.61v0c2.427 0 4.273 0.587 5.54 1.76v0c1.093 0.987 1.85 2.507 2.27 4.56v0c0.28 1.4 0.42 3.483 0.42 6.25v0 13.38h-4.2v-14.55c0-2.427-0.237-4.16-0.71-5.2v0c-0.7-1.547-2.107-2.32-4.22-2.32v0c-1.5 0-2.967 0.717-4.4 2.15v0c-0.96 0.96-1.983 2.367-3.07 4.22v0 15.7h-4.2v-15.63c0-2.193-0.057-4.087-0.17-5.68v0c-0.067-0.993-0.28-2.207-0.64-3.64zM105.25 125.5v0l-1.08-3.42c2.74-1.087 5.607-1.63 8.6-1.63v0c2.62 0 4.62 0.44 6 1.32v0c1.58 1.007 2.37 2.723 2.37 5.15v0 9.98c0 1.333 0.017 2.7 0.05 4.1v0c0.02 0.833 0.103 1.697 0.25 2.59v0c0.127 0.847 0.297 1.653 0.51 2.42v0l-4.01 0.88c-0.373-1.093-0.607-2.313-0.7-3.66v0l-0.49-0.05c-2.02 2.54-4.593 3.81-7.72 3.81v0c-2.273 0-4.103-0.633-5.49-1.9-1.387-1.26-2.08-3.037-2.08-5.33v0c0-1.707 0.38-3.107 1.14-4.2 0.76-1.093 1.83-2.013 3.21-2.76v0c2.18-1.187 5.233-1.78 9.16-1.78v0c0.52 0 1.22 0.017 2.1 0.05v0-3.71c0-1.173-0.36-2.02-1.08-2.54-0.713-0.52-1.837-0.78-3.37-0.78v0c-2.227 0-4.683 0.487-7.37 1.46zM117.07 139.27v0-5.13c-0.44-0.027-1.083-0.04-1.93-0.04v0c-1.433 0-2.753 0.12-3.96 0.36v0c-1.787 0.36-3.173 0.927-4.16 1.7-0.987 0.773-1.48 1.883-1.48 3.33v0c0 2.607 1.417 3.91 4.25 3.91v0c1.467 0 2.833-0.39 4.1-1.17v0c1.04-0.653 2.1-1.64 3.18-2.96zM141.43 121.01h2.25c0.7 0 1.313-0.01 1.84-0.03 0.527-0.013 1.037-0.047 1.53-0.1 0.487-0.06 0.977-0.147 1.47-0.26 0.5-0.113 1.083-0.277 1.75-0.49v0c0.213 0.62 0.42 1.207 0.62 1.76 0.207 0.553 0.413 1.123 0.62 1.71v0c-0.52 0.193-1 0.347-1.44 0.46-0.44 0.113-0.873 0.207-1.3 0.28-0.433 0.073-0.867 0.123-1.3 0.15-0.427 0.02-0.887 0.04-1.38 0.06v0c0.46 0.733 0.81 1.557 1.05 2.47 0.247 0.907 0.37 1.897 0.37 2.97v0c0 1.567-0.237 2.93-0.71 4.09-0.473 1.167-1.147 2.157-2.02 2.97v0c-0.88 0.813-1.937 1.427-3.17 1.84-1.227 0.42-2.603 0.63-4.13 0.63v0c-0.787 0-1.53-0.047-2.23-0.14-0.7-0.087-1.367-0.247-2-0.48v0c-0.147 0.393-0.273 0.793-0.38 1.2-0.107 0.407-0.153 0.793-0.14 1.16 0.007 0.367 0.073 0.7 0.2 1 0.133 0.3 0.363 0.54 0.69 0.72v0c0.16 0.1 0.33 0.177 0.51 0.23 0.18 0.06 0.397 0.11 0.65 0.15 0.253 0.04 0.557 0.073 0.91 0.1 0.36 0.02 0.793 0.03 1.3 0.03v0c0.487 0.02 1.06 0.03 1.72 0.03 0.66 0 1.43 0 2.31 0v0c2.533 0 4.453 0.533 5.76 1.6 1.3 1.067 1.95 2.723 1.95 4.97v0c0 0.907-0.147 1.717-0.44 2.43-0.293 0.707-0.697 1.32-1.21 1.84-0.513 0.52-1.12 0.957-1.82 1.31-0.7 0.347-1.457 0.63-2.27 0.85-0.813 0.22-1.663 0.373-2.55 0.46-0.887 0.093-1.777 0.14-2.67 0.14v0c-0.893 0-1.793-0.05-2.7-0.15-0.9-0.1-1.783-0.22-2.65-0.36v0c-0.86-0.147-1.67-0.317-2.43-0.51-0.753-0.187-1.423-0.367-2.01-0.54v0c0.227-0.553 0.483-1.107 0.77-1.66 0.28-0.553 0.583-1.077 0.91-1.57v0c1.027 0.293 2.25 0.58 3.67 0.86 1.413 0.273 2.983 0.41 4.71 0.41v0c0.78 0 1.547-0.047 2.3-0.14 0.76-0.1 1.447-0.283 2.06-0.55 0.607-0.273 1.097-0.633 1.47-1.08 0.373-0.447 0.56-1.027 0.56-1.74v0c0-0.753-0.133-1.333-0.4-1.74-0.267-0.407-0.63-0.707-1.09-0.9-0.453-0.193-0.99-0.307-1.61-0.34-0.613-0.033-1.263-0.05-1.95-0.05v0h-3.2c-0.96 0-1.863-0.073-2.71-0.22-0.847-0.147-1.587-0.397-2.22-0.75-0.633-0.347-1.133-0.803-1.5-1.37-0.367-0.573-0.55-1.273-0.55-2.1v0c0-0.8 0.147-1.627 0.44-2.48 0.293-0.853 0.677-1.72 1.15-2.6v0c-1.08-0.78-1.907-1.813-2.48-3.1-0.58-1.287-0.87-2.77-0.87-4.45v0c0-1.527 0.24-2.88 0.72-4.06 0.48-1.18 1.16-2.187 2.04-3.02v0c0.88-0.827 1.93-1.443 3.15-1.85 1.22-0.407 2.597-0.61 4.13-0.61v0c1.427 0 2.743 0.187 3.95 0.56zM137.48 123.82v0c-1.027 0-1.907 0.153-2.64 0.46-0.733 0.307-1.333 0.733-1.8 1.28-0.46 0.547-0.8 1.2-1.02 1.96-0.22 0.753-0.33 1.577-0.33 2.47v0c0 0.913 0.11 1.743 0.33 2.49 0.22 0.753 0.567 1.4 1.04 1.94 0.467 0.547 1.063 0.97 1.79 1.27 0.727 0.307 1.603 0.46 2.63 0.46v0c1.02 0 1.897-0.153 2.63-0.46 0.733-0.3 1.333-0.723 1.8-1.27 0.46-0.54 0.8-1.19 1.02-1.95 0.22-0.753 0.33-1.58 0.33-2.48v0c0-0.893-0.11-1.717-0.33-2.47-0.22-0.76-0.56-1.413-1.02-1.96-0.467-0.547-1.067-0.973-1.8-1.28-0.733-0.307-1.61-0.46-2.63-0.46zM174.24 141.69l1.22 3.29c-1.807 0.72-3.503 1.233-5.09 1.54-1.587 0.313-3.007 0.47-4.26 0.47v0c-1.92 0-3.597-0.307-5.03-0.92-1.427-0.613-2.617-1.473-3.57-2.58-0.953-1.107-1.67-2.427-2.15-3.96-0.48-1.54-0.72-3.237-0.72-5.09v0c0-1.14 0.08-2.28 0.24-3.42 0.167-1.14 0.427-2.227 0.78-3.26 0.36-1.033 0.83-1.997 1.41-2.89 0.573-0.9 1.277-1.673 2.11-2.32 0.827-0.653 1.793-1.167 2.9-1.54 1.113-0.373 2.377-0.56 3.79-0.56v0c3.627 0 6.36 1.133 8.2 3.4 1.84 2.273 2.76 5.527 2.76 9.76v0 1.34h-17.87c0 1.367 0.147 2.577 0.44 3.63 0.293 1.047 0.743 1.933 1.35 2.66 0.613 0.72 1.387 1.267 2.32 1.64 0.94 0.38 2.053 0.57 3.34 0.57v0c0.713 0 1.423-0.053 2.13-0.16 0.707-0.107 1.397-0.247 2.07-0.42 0.667-0.167 1.303-0.357 1.91-0.57 0.613-0.213 1.187-0.417 1.72-0.61zM159.08 131.58h13.53c-0.133-2.633-0.763-4.557-1.89-5.77-1.133-1.213-2.75-1.82-4.85-1.82v0c-2.1 0-3.7 0.607-4.8 1.82-1.1 1.213-1.763 3.137-1.99 5.77zM187.57 146.4h-4.2v-15.7c0-2.507-0.057-4.393-0.17-5.66v0c-0.06-0.993-0.27-2.207-0.63-3.64v0l4-0.9c0.313 0.973 0.533 1.917 0.66 2.83v0c0.067 0.34 0.15 1.227 0.25 2.66v0h0.51c0.827-1.66 1.867-2.963 3.12-3.91v0c1.353-1.087 2.893-1.63 4.62-1.63v0c0.973 0 1.917 0.173 2.83 0.52 0.913 0.353 1.677 0.847 2.29 1.48v0c0.933 0.913 1.593 2.263 1.98 4.05v0h0.3c0.973-1.887 2.12-3.333 3.44-4.34v0c1.413-1.14 3-1.71 4.76-1.71v0c2.133 0 3.77 0.593 4.91 1.78v0c0.987 0.993 1.683 2.507 2.09 4.54v0c0.293 1.48 0.44 3.547 0.44 6.2v0 13.43h-4.19v-14.6c0-1.287-0.073-2.343-0.22-3.17v0c-0.233-1.287-0.643-2.29-1.23-3.01v0c-0.727-0.86-1.75-1.29-3.07-1.29v0c-1.5 0-2.883 0.717-4.15 2.15v0c-0.767 0.86-1.68 2.193-2.74 4v0c0.033 0.28 0.05 0.687 0.05 1.22v0 14.7h-4.2v-14.6c0-2.067-0.203-3.653-0.61-4.76v0c-0.68-1.807-1.973-2.71-3.88-2.71v0c-1.467 0-2.857 0.733-4.17 2.2v0c-0.767 0.847-1.697 2.253-2.79 4.22v0zM243.65 141.69l1.22 3.29c-1.807 0.72-3.503 1.233-5.09 1.54-1.587 0.313-3.007 0.47-4.26 0.47v0c-1.92 0-3.597-0.307-5.03-0.92-1.433-0.613-2.623-1.473-3.57-2.58-0.953-1.107-1.67-2.427-2.15-3.96-0.48-1.54-0.72-3.237-0.72-5.09v0c0-1.14 0.08-2.28 0.24-3.42 0.167-1.14 0.427-2.227 0.78-3.26 0.36-1.033 0.83-1.997 1.41-2.89 0.573-0.9 1.277-1.673 2.11-2.32 0.827-0.653 1.793-1.167 2.9-1.54 1.107-0.373 2.37-0.56 3.79-0.56v0c3.627 0 6.36 1.133 8.2 3.4 1.84 2.273 2.76 5.527 2.76 9.76v0 1.34h-17.87c0 1.367 0.147 2.577 0.44 3.63 0.293 1.047 0.743 1.933 1.35 2.66 0.613 0.72 1.387 1.267 2.32 1.64 0.94 0.38 2.053 0.57 3.34 0.57v0c0.713 0 1.423-0.053 2.13-0.16 0.707-0.107 1.393-0.247 2.06-0.42 0.673-0.167 1.313-0.357 1.92-0.57 0.613-0.213 1.187-0.417 1.72-0.61zM228.49 131.58h13.53c-0.133-2.633-0.767-4.557-1.9-5.77-1.127-1.213-2.74-1.82-4.84-1.82v0c-2.1 0-3.7 0.607-4.8 1.82-1.1 1.213-1.763 3.137-1.99 5.77zM251.98 121.45v0l4.05-0.9c0.307 0.973 0.527 1.917 0.66 2.83v0c0.067 0.44 0.147 1.31 0.24 2.61v0h0.52c0.893-1.647 2-2.957 3.32-3.93v0c1.447-1.073 2.977-1.61 4.59-1.61v0c2.42 0 4.267 0.587 5.54 1.76v0c1.087 0.987 1.843 2.507 2.27 4.56v0c0.273 1.4 0.41 3.483 0.41 6.25v0 13.38h-4.2v-14.55c0-2.427-0.233-4.16-0.7-5.2v0c-0.7-1.547-2.11-2.32-4.23-2.32v0c-1.493 0-2.957 0.717-4.39 2.15v0c-0.96 0.96-1.987 2.367-3.08 4.22v0 15.7h-4.2v-15.63c0-2.193-0.057-4.087-0.17-5.68v0c-0.067-0.993-0.277-2.207-0.63-3.64zM283.03 121.01v-5.81h4.2v5.81h8.55v3.54h-8.55v14.57c0 0.98 0.03 1.727 0.09 2.24 0.053 0.513 0.193 0.917 0.42 1.21v0c0.427 0.587 1.283 0.88 2.57 0.88v0c0.713 0 1.403-0.073 2.07-0.22v0c0.687-0.147 1.313-0.31 1.88-0.49v0c0.46 0.993 0.877 2.083 1.25 3.27v0c-1.92 0.653-3.857 0.98-5.81 0.98v0c-1.42 0-2.557-0.16-3.41-0.48-0.853-0.32-1.523-0.837-2.01-1.55v0c-0.507-0.747-0.84-1.643-1-2.69-0.167-1.04-0.25-2.48-0.25-4.32v0-13.4h-3.66v-3.54z" fill="#636365" fill-rule="nonzero" stroke="none" stroke-width="1" stroke-linecap="butt" stroke-linejoin="miter" stroke-miterlimit="10" stroke-dasharray="" stroke-dashoffset="0" font-family="none" font-weight="none" font-size="none" text-anchor="none" style="mix-blend-mode: normal" data-fill-palette-color="secondary" opacity="1"></path><path d="M2.81 193.71l1.46-3.61c0.667 0.26 1.37 0.503 2.11 0.73 0.747 0.227 1.503 0.423 2.27 0.59 0.773 0.16 1.553 0.29 2.34 0.39 0.78 0.093 1.543 0.14 2.29 0.14v0c1.287 0 2.45-0.147 3.49-0.44 1.04-0.293 1.937-0.72 2.69-1.28 0.747-0.56 1.323-1.25 1.73-2.07 0.407-0.827 0.61-1.767 0.61-2.82v0c0-1.06-0.19-1.927-0.57-2.6-0.387-0.68-0.94-1.247-1.66-1.7-0.727-0.453-1.62-0.84-2.68-1.16-1.053-0.32-2.257-0.65-3.61-0.99v0c-1.493-0.387-2.873-0.82-4.14-1.3-1.26-0.48-2.35-1.103-3.27-1.87-0.92-0.767-1.64-1.717-2.16-2.85-0.52-1.127-0.78-2.537-0.78-4.23v0c0-1.387 0.277-2.64 0.83-3.76 0.553-1.127 1.333-2.083 2.34-2.87 1.013-0.793 2.227-1.4 3.64-1.82 1.42-0.42 2.983-0.63 4.69-0.63v0c0.827 0 1.673 0.05 2.54 0.15 0.86 0.107 1.713 0.25 2.56 0.43 0.847 0.18 1.677 0.4 2.49 0.66 0.813 0.26 1.58 0.547 2.3 0.86v0l-1.47 3.61c-0.587-0.227-1.183-0.457-1.79-0.69-0.613-0.227-1.26-0.43-1.94-0.61-0.687-0.173-1.417-0.313-2.19-0.42-0.773-0.107-1.607-0.16-2.5-0.16v0c-0.893 0-1.747 0.097-2.56 0.29-0.82 0.193-1.543 0.5-2.17 0.92-0.627 0.413-1.127 0.953-1.5 1.62-0.373 0.667-0.56 1.473-0.56 2.42v0c0 1.053 0.193 1.92 0.58 2.6 0.38 0.673 0.933 1.237 1.66 1.69 0.72 0.46 1.61 0.847 2.67 1.16 1.06 0.32 2.263 0.65 3.61 0.99v0c1.5 0.393 2.88 0.83 4.14 1.31 1.26 0.48 2.35 1.103 3.27 1.87 0.92 0.76 1.64 1.71 2.16 2.85 0.52 1.14 0.78 2.55 0.78 4.23v0c0 1.773-0.33 3.313-0.99 4.62-0.653 1.313-1.57 2.4-2.75 3.26-1.18 0.867-2.58 1.51-4.2 1.93-1.62 0.427-3.383 0.64-5.29 0.64v0c-3.593 0-7.083-0.693-10.47-2.08zM49.66 169.81h4.2v25.95c0 1.613-0.267 3.007-0.8 4.18-0.527 1.167-1.257 2.133-2.19 2.9-0.94 0.767-2.053 1.333-3.34 1.7-1.28 0.367-2.68 0.55-4.2 0.55v0c-1.367 0-2.74-0.12-4.12-0.36-1.387-0.233-2.707-0.563-3.96-0.99v0c0.213-0.567 0.433-1.12 0.66-1.66 0.227-0.533 0.457-1.07 0.69-1.61v0c0.387 0.133 0.853 0.273 1.4 0.42 0.547 0.147 1.123 0.28 1.73 0.4 0.613 0.12 1.24 0.217 1.88 0.29 0.647 0.073 1.27 0.11 1.87 0.11v0c0.947 0 1.8-0.123 2.56-0.37 0.767-0.253 1.42-0.633 1.96-1.14 0.533-0.507 0.943-1.13 1.23-1.87 0.287-0.74 0.43-1.59 0.43-2.55v0-5.52h-0.47c-0.42 0.767-0.907 1.487-1.46 2.16-0.553 0.68-1.163 1.27-1.83 1.77-0.667 0.507-1.387 0.903-2.16 1.19-0.773 0.287-1.593 0.43-2.46 0.43v0c-1.187 0-2.22-0.137-3.1-0.41-0.873-0.267-1.623-0.663-2.25-1.19-0.627-0.533-1.14-1.193-1.54-1.98-0.4-0.787-0.707-1.703-0.92-2.75v0c-0.18-0.927-0.293-1.92-0.34-2.98-0.047-1.053-0.07-2.143-0.07-3.27v0-13.4h4.2v14.57c0 1.06 0.047 2.05 0.14 2.97 0.1 0.92 0.317 1.717 0.65 2.39 0.333 0.68 0.827 1.21 1.48 1.59 0.647 0.38 1.533 0.57 2.66 0.57v0c0.827 0 1.607-0.197 2.34-0.59 0.733-0.4 1.41-0.91 2.03-1.53 0.62-0.62 1.183-1.303 1.69-2.05 0.513-0.747 0.983-1.48 1.41-2.2v0zM69.8 169.25v0c1.333 0 2.673 0.137 4.02 0.41 1.34 0.28 2.587 0.663 3.74 1.15v0c-0.227 0.52-0.46 1.033-0.7 1.54-0.247 0.507-0.517 1.003-0.81 1.49v0c-0.407-0.167-0.86-0.33-1.36-0.49-0.493-0.16-1.013-0.3-1.56-0.42-0.547-0.113-1.107-0.207-1.68-0.28-0.58-0.073-1.147-0.11-1.7-0.11v0c-0.6 0-1.18 0.063-1.74 0.19-0.567 0.12-1.063 0.317-1.49 0.59-0.433 0.28-0.78 0.643-1.04 1.09-0.26 0.447-0.39 1.003-0.39 1.67v0c0 0.687 0.147 1.26 0.44 1.72 0.293 0.467 0.69 0.853 1.19 1.16 0.507 0.313 1.097 0.577 1.77 0.79 0.68 0.207 1.4 0.4 2.16 0.58v0c1.193 0.293 2.3 0.623 3.32 0.99 1.027 0.367 1.917 0.843 2.67 1.43 0.747 0.587 1.33 1.31 1.75 2.17 0.427 0.867 0.64 1.933 0.64 3.2v0c0 1.333-0.267 2.48-0.8 3.44-0.527 0.96-1.24 1.753-2.14 2.38-0.907 0.627-1.963 1.09-3.17 1.39-1.2 0.307-2.483 0.46-3.85 0.46v0c-0.72 0-1.457-0.047-2.21-0.14-0.76-0.087-1.51-0.217-2.25-0.39-0.74-0.173-1.467-0.38-2.18-0.62-0.72-0.247-1.397-0.517-2.03-0.81v0c0.227-0.52 0.467-1.027 0.72-1.52 0.253-0.5 0.517-0.993 0.79-1.48v0c0.54 0.227 1.11 0.443 1.71 0.65 0.607 0.2 1.227 0.373 1.86 0.52 0.633 0.147 1.26 0.267 1.88 0.36 0.62 0.087 1.213 0.13 1.78 0.13v0c0.713 0 1.41-0.08 2.09-0.24 0.673-0.167 1.273-0.423 1.8-0.77 0.533-0.353 0.957-0.807 1.27-1.36 0.32-0.553 0.48-1.22 0.48-2v0c0-0.733-0.15-1.337-0.45-1.81-0.3-0.467-0.703-0.86-1.21-1.18-0.507-0.32-1.097-0.58-1.77-0.78-0.673-0.207-1.387-0.4-2.14-0.58v0c-1.14-0.273-2.217-0.59-3.23-0.95-1.02-0.36-1.907-0.827-2.66-1.4-0.76-0.58-1.363-1.297-1.81-2.15-0.447-0.853-0.67-1.917-0.67-3.19v0c0-1.187 0.243-2.21 0.73-3.07 0.487-0.867 1.143-1.577 1.97-2.13 0.82-0.553 1.77-0.963 2.85-1.23 1.087-0.267 2.223-0.4 3.41-0.4zM87.82 169.81v-5.81h4.2v5.81h8.54v3.54h-8.54v14.57c0 0.98 0.027 1.727 0.08 2.24 0.06 0.513 0.203 0.917 0.43 1.21v0c0.42 0.587 1.273 0.88 2.56 0.88v0c0.72 0 1.413-0.073 2.08-0.22v0c0.68-0.147 1.307-0.31 1.88-0.49v0c0.453 0.993 0.867 2.083 1.24 3.27v0c-1.92 0.653-3.857 0.98-5.81 0.98v0c-1.413 0-2.547-0.16-3.4-0.48-0.86-0.32-1.533-0.837-2.02-1.55v0c-0.5-0.747-0.833-1.643-1-2.69-0.16-1.04-0.24-2.48-0.24-4.32v0-13.4h-3.66v-3.54zM124.37 190.49l1.22 3.29c-1.807 0.72-3.503 1.233-5.09 1.54-1.587 0.313-3.007 0.47-4.26 0.47v0c-1.927 0-3.603-0.307-5.03-0.92-1.433-0.613-2.627-1.473-3.58-2.58-0.953-1.107-1.67-2.427-2.15-3.96-0.48-1.54-0.72-3.237-0.72-5.09v0c0-1.14 0.08-2.28 0.24-3.42 0.167-1.14 0.43-2.227 0.79-3.26 0.353-1.033 0.82-1.997 1.4-2.89 0.58-0.9 1.283-1.673 2.11-2.32 0.833-0.653 1.803-1.167 2.91-1.54 1.107-0.373 2.367-0.56 3.78-0.56v0c3.633 0 6.367 1.133 8.2 3.4 1.84 2.273 2.76 5.527 2.76 9.76v0 1.34h-17.87c0 1.367 0.147 2.577 0.44 3.63 0.293 1.047 0.747 1.933 1.36 2.66 0.607 0.72 1.38 1.267 2.32 1.64 0.933 0.38 2.043 0.57 3.33 0.57v0c0.713 0 1.423-0.053 2.13-0.16 0.713-0.107 1.403-0.247 2.07-0.42 0.667-0.167 1.303-0.357 1.91-0.57 0.613-0.213 1.19-0.417 1.73-0.61zM109.2 180.38h13.53c-0.133-2.633-0.763-4.557-1.89-5.77-1.133-1.213-2.75-1.82-4.85-1.82v0c-2.1 0-3.7 0.607-4.8 1.82-1.093 1.213-1.757 3.137-1.99 5.77zM137.7 195.2h-4.2v-15.7c0-2.507-0.057-4.393-0.17-5.66v0c-0.067-0.993-0.28-2.207-0.64-3.64v0l4-0.9c0.313 0.973 0.533 1.917 0.66 2.83v0c0.067 0.34 0.15 1.227 0.25 2.66v0h0.51c0.833-1.66 1.877-2.963 3.13-3.91v0c1.347-1.087 2.883-1.63 4.61-1.63v0c0.973 0 1.917 0.173 2.83 0.52 0.913 0.353 1.68 0.847 2.3 1.48v0c0.927 0.913 1.583 2.263 1.97 4.05v0h0.3c0.973-1.887 2.12-3.333 3.44-4.34v0c1.413-1.14 3-1.71 4.76-1.71v0c2.133 0 3.77 0.593 4.91 1.78v0c0.993 0.993 1.693 2.507 2.1 4.54v0c0.293 1.48 0.44 3.547 0.44 6.2v0 13.43h-4.2v-14.6c0-1.287-0.073-2.343-0.22-3.17v0c-0.227-1.287-0.633-2.29-1.22-3.01v0c-0.733-0.86-1.76-1.29-3.08-1.29v0c-1.5 0-2.883 0.717-4.15 2.15v0c-0.767 0.86-1.677 2.193-2.73 4v0c0.027 0.28 0.04 0.687 0.04 1.22v0 14.7h-4.19v-14.6c0-2.067-0.203-3.653-0.61-4.76v0c-0.687-1.807-1.983-2.71-3.89-2.71v0c-1.46 0-2.85 0.733-4.17 2.2v0c-0.767 0.847-1.693 2.253-2.78 4.22v0z" fill="#919591" fill-rule="nonzero" stroke="none" stroke-width="1" stroke-linecap="butt" stroke-linejoin="miter" stroke-miterlimit="10" stroke-dasharray="" stroke-dashoffset="0" font-family="none" font-weight="none" font-size="none" text-anchor="none" style="mix-blend-mode: normal" data-fill-palette-color="primary" opacity="1"></path></g></svg></g></svg></g></svg></g></svg></g></svg></g><defs></defs></svg><rect width="297.3008884975586" height="247.2" fill="none" stroke="none" visibility="hidden"></rect></g></svg></g></svg>